# Exported from Wings 3D 0.98.32a
mtllib w3d-test.mtl
o cone3
#17 vertices, 17 faces
v 0.60620000 -0.68526823 -2.5717990e-18
v 0.56005577 -0.68526823 0.23198270
v 0.42864813 -0.68526823 0.42864813
v 0.23198270 -0.68526823 0.56005577
v 3.6856577e-18 -0.68526823 0.60620000
v -0.23198270 -0.68526823 0.56005577
v -0.42864813 -0.68526823 0.42864813
v -0.56005577 -0.68526823 0.23198270
v -0.60620000 -0.68526823 7.1666290e-17
v -0.56005577 -0.68526823 -0.23198270
v -0.42864813 -0.68526823 -0.42864813
v -0.23198270 -0.68526823 -0.56005577
v -1.4479052e-16 -0.68526823 -0.60620000
v 0.23198270 -0.68526823 -0.56005577
v 0.42864813 -0.68526823 -0.42864813
v 0.56005577 -0.68526823 -0.23198270
v -3.3433387e-17 1.31473177 -2.5717990e-18
vn 0.97482177 -0.22298545 -1.0072991e-16
vn 0.90061788 -0.22298545 0.37304814
vn 0.68930309 -0.22298545 0.68930309
vn 0.37304814 -0.22298545 0.90061788
vn -1.4389987e-17 -0.22298545 0.97482177
vn -0.37304814 -0.22298545 0.90061788
vn -0.68930309 -0.22298545 0.68930309
vn -0.90061788 -0.22298545 0.37304814
vn -0.97482177 -0.22298545 2.3023980e-16
vn -0.90061788 -0.22298545 -0.37304814
vn -0.68930309 -0.22298545 -0.68930309
vn -0.37304814 -0.22298545 -0.90061788
vn -2.3023980e-16 -0.22298545 -0.97482177
vn 0.37304814 -0.22298545 -0.90061788
vn 0.68930309 -0.22298545 -0.68930309
vn 0.90061788 -0.22298545 -0.37304814
vn -4.8702275e-17 1.00000000 -1.9480910e-16
g cone3_default
usemtl default
f 1//1 17//17 2//2
f 2//2 3//3 4//4 5//5 6//6 7//7 8//8 9//9 10//10 11//11 12//12 13//13 14//14 15//15 16//16 1//1
f 2//2 17//17 3//3
f 3//3 17//17 4//4
f 4//4 17//17 5//5
f 5//5 17//17 6//6
f 6//6 17//17 7//7
f 7//7 17//17 8//8
f 8//8 17//17 9//9
f 9//9 17//17 10//10
f 10//10 17//17 11//11
f 11//11 17//17 12//12
f 12//12 17//17 13//13
f 13//13 17//17 14//14
f 14//14 17//17 15//15
f 15//15 17//17 16//16
f 16//16 17//17 1//1
o cone2
#17 vertices, 17 faces
v 1.00000000 3.20660298 0.0000000e+0
v 0.92387953 3.20660298 0.38268343
v 0.70710678 3.20660298 0.70710678
v 0.38268343 3.20660298 0.92387953
v 6.1232340e-17 3.20660298 1.00000000
v -0.38268343 3.20660298 0.92387953
v -0.70710678 3.20660298 0.70710678
v -0.92387953 3.20660298 0.38268343
v -1.00000000 3.20660298 1.2246468e-16
v -0.92387953 3.20660298 -0.38268343
v -0.70710678 3.20660298 -0.70710678
v -0.38268343 3.20660298 -0.92387953
v -1.8369702e-16 3.20660298 -1.00000000
v 0.38268343 3.20660298 -0.92387953
v 0.70710678 3.20660298 -0.70710678
v 0.92387953 3.20660298 -0.38268343
v 0.0000000e+0 5.20660298 0.0000000e+0
vn 0.99770979 -6.7640061e-2 -1.5723394e-16
vn 0.92176365 -6.7640061e-2 0.38180701
vn 0.70548736 -6.7640061e-2 0.70548736
vn 0.38180701 -6.7640061e-2 0.92176365
vn 0.0000000e+0 -6.7640061e-2 0.99770979
vn -0.38180701 -6.7640061e-2 0.92176365
vn -0.70548736 -6.7640061e-2 0.70548736
vn -0.92176365 -6.7640061e-2 0.38180701
vn -0.99770979 -6.7640061e-2 1.5723394e-17
vn -0.92176365 -6.7640061e-2 -0.38180701
vn -0.70548736 -6.7640061e-2 -0.70548736
vn -0.38180701 -6.7640061e-2 -0.92176365
vn -9.4340361e-17 -6.7640061e-2 -0.99770979
vn 0.38180701 -6.7640061e-2 -0.92176365
vn 0.70548736 -6.7640061e-2 -0.70548736
vn 0.92176365 -6.7640061e-2 -0.38180701
vn -6.3037944e-17 1.00000000 -1.3001576e-16
g cone2_default
usemtl default
f 18//18 34//34 19//19
f 19//19 20//20 21//21 22//22 23//23 24//24 25//25 26//26 27//27 28//28 29//29 30//30 31//31 32//32 33//33 18//18
f 19//19 34//34 20//20
f 20//20 34//34 21//21
f 21//21 34//34 22//22
f 22//22 34//34 23//23
f 23//23 34//34 24//24
f 24//24 34//34 25//25
f 25//25 34//34 26//26
f 26//26 34//34 27//27
f 27//27 34//34 28//28
f 28//28 34//34 29//29
f 29//29 34//34 30//30
f 30//30 34//34 31//31
f 31//31 34//34 32//32
f 32//32 34//34 33//33
f 33//33 34//34 18//18
o cylinder1
#32 vertices, 18 faces
v 1.00000000 3.22215846 0.0000000e+0
v 0.92387953 3.22215846 0.38268343
v 0.70710678 3.22215846 0.70710678
v 0.38268343 3.22215846 0.92387953
v 6.1232340e-17 3.22215846 1.00000000
v -0.38268343 3.22215846 0.92387953
v -0.70710678 3.22215846 0.70710678
v -0.92387953 3.22215846 0.38268343
v -1.00000000 3.22215846 1.2246468e-16
v -0.92387953 3.22215846 -0.38268343
v -0.70710678 3.22215846 -0.70710678
v -0.38268343 3.22215846 -0.92387953
v -1.8369702e-16 3.22215846 -1.00000000
v 0.38268343 3.22215846 -0.92387953
v 0.70710678 3.22215846 -0.70710678
v 0.92387953 3.22215846 -0.38268343
v 1.00000000 5.6253361e-2 0.0000000e+0
v 0.92387953 5.6253361e-2 0.38268343
v 0.70710678 5.6253361e-2 0.70710678
v 0.38268343 5.6253361e-2 0.92387953
v 6.1232340e-17 5.6253361e-2 1.00000000
v -0.38268343 5.6253361e-2 0.92387953
v -0.70710678 5.6253361e-2 0.70710678
v -0.92387953 5.6253361e-2 0.38268343
v -1.00000000 5.6253361e-2 1.2246468e-16
v -0.92387953 5.6253361e-2 -0.38268343
v -0.70710678 5.6253361e-2 -0.70710678
v -0.38268343 5.6253361e-2 -0.92387953
v -1.8369702e-16 5.6253361e-2 -1.00000000
v 0.38268343 5.6253361e-2 -0.92387953
v 0.70710678 5.6253361e-2 -0.70710678
v 0.92387953 5.6253361e-2 -0.38268343
vn 0.89090915 0.45418155 -2.5212141e-16
vn 0.82309273 0.45418155 0.34093617
vn 0.62996790 0.45418155 0.62996790
vn 0.34093617 0.45418155 0.82309273
vn 0.0000000e+0 0.45418155 0.89090915
vn -0.34093617 0.45418155 0.82309273
vn -0.62996790 0.45418155 0.62996790
vn -0.82309273 0.45418155 0.34093617
vn -0.89090915 0.45418155 -6.3030352e-17
vn -0.82309273 0.45418155 -0.34093617
vn -0.62996790 0.45418155 -0.62996790
vn -0.34093617 0.45418155 -0.82309273
vn -1.5127284e-16 0.45418155 -0.89090915
vn 0.34093617 0.45418155 -0.82309273
vn 0.62996790 0.45418155 -0.62996790
vn 0.82309273 0.45418155 -0.34093617
vn 0.89090915 -0.45418155 -1.8909105e-16
vn 0.82309273 -0.45418155 0.34093617
vn 0.62996790 -0.45418155 0.62996790
vn 0.34093617 -0.45418155 0.82309273
vn 0.0000000e+0 -0.45418155 0.89090915
vn -0.34093617 -0.45418155 0.82309273
vn -0.62996790 -0.45418155 0.62996790
vn -0.82309273 -0.45418155 0.34093617
vn -0.89090915 -0.45418155 0.0000000e+0
vn -0.82309273 -0.45418155 -0.34093617
vn -0.62996790 -0.45418155 -0.62996790
vn -0.34093617 -0.45418155 -0.82309273
vn -1.5127284e-16 -0.45418155 -0.89090915
vn 0.34093617 -0.45418155 -0.82309273
vn 0.62996790 -0.45418155 -0.62996790
vn 0.82309273 -0.45418155 -0.34093617
g cylinder1_default
usemtl default
f 35//35 50//50 49//49 48//48 47//47 46//46 45//45 44//44 43//43 42//42 41//41 40//40 39//39 38//38 37//37 36//36
f 35//35 51//51 66//66 50//50
f 36//36 52//52 51//51 35//35
f 37//37 53//53 52//52 36//36
f 38//38 54//54 53//53 37//37
f 39//39 55//55 54//54 38//38
f 40//40 56//56 55//55 39//39
f 41//41 57//57 56//56 40//40
f 42//42 58//58 57//57 41//41
f 43//43 59//59 58//58 42//42
f 44//44 60//60 59//59 43//43
f 45//45 61//61 60//60 44//44
f 46//46 62//62 61//61 45//45
f 47//47 63//63 62//62 46//46
f 48//48 64//64 63//63 47//47
f 49//49 65//65 64//64 48//48
f 50//50 66//66 65//65 49//49
f 52//52 53//53 54//54 55//55 56//56 57//57 58//58 59//59 60//60 61//61 62//62 63//63 64//64 65//65 66//66 51//51
